# xmcd
#
# Track frame offsets:
#	150
#	15183
#	31150
#	47169
#	62637
#	77666
#	90278
#	110710
#	132602
#	145992
#	160148
#	175287
#	188849
#	207149
#
# Disc length: 3011 seconds
#
# Revision: 0
# Processed by: cddbd v1.5.2PL0 Copyright (c) Steve Scherf et al.
# Submitted via: audiograbber 1.83.01
#
DISCID=b40bc10e
DTITLE=Rag Mama Rag - Live
DYEAR=2001
DGENRE=Folk
TTITLE0=Wing And A Prayer
TTITLE1=Set A Date
TTITLE2=Kind Hearted Woman
TTITLE3=Poor Boy
TTITLE4=Brownsville Blues
TTITLE5=Jitterbug Rag
TTITLE6=Hard Times Killing Floor
TTITLE7=Finxin' To Die
TTITLE8=Lazy Good For Nothing Dude
TTITLE9=Boogie Woogie Dance
TTITLE10=Cigarette Blues
TTITLE11=Rally Round The Flag
TTITLE12=Jesus On The Mainline
TTITLE13=Minnie The Moocher
EXTD=
EXTT0=
EXTT1=
EXTT2=
EXTT3=
EXTT4=
EXTT5=
EXTT6=
EXTT7=
EXTT8=
EXTT9=
EXTT10=
EXTT11=
EXTT12=
EXTT13=
PLAYORDER=
